<svg width="38" height="40" viewBox="0 0 38 40" fill="none" xmlns="http://www.w3.org/2000/svg">
<path d="M0.5 36.25C0.5 38.3203 2.41964 40 4.78571 40H36.2143C38.5804 40 40.5 38.3203 40.5 36.25V15H0.5V36.25ZM29.0714 20.9375C29.0714 20.4219 29.5536 20 30.1429 20H33.7143C34.3036 20 34.7857 20.4219 34.7857 20.9375V24.0625C34.7857 24.5781 34.3036 25 33.7143 25H30.1429C29.5536 25 29.0714 24.5781 29.0714 24.0625V20.9375ZM29.0714 30.9375C29.0714 30.4219 29.5536 30 30.1429 30H33.7143C34.3036 30 34.7857 30.4219 34.7857 30.9375V34.0625C34.7857 34.5781 34.3036 35 33.7143 35H30.1429C29.5536 35 29.0714 34.5781 29.0714 34.0625V30.9375ZM17.6429 20.9375C17.6429 20.4219 18.125 20 18.7143 20H22.2857C22.875 20 23.3571 20.4219 23.3571 20.9375V24.0625C23.3571 24.5781 22.875 25 22.2857 25H18.7143C18.125 25 17.6429 24.5781 17.6429 24.0625V20.9375ZM17.6429 30.9375C17.6429 30.4219 18.125 30 18.7143 30H22.2857C22.875 30 23.3571 30.4219 23.3571 30.9375V34.0625C23.3571 34.5781 22.875 35 22.2857 35H18.7143C18.125 35 17.6429 34.5781 17.6429 34.0625V30.9375ZM6.21429 20.9375C6.21429 20.4219 6.69643 20 7.28571 20H10.8571C11.4464 20 11.9286 20.4219 11.9286 20.9375V24.0625C11.9286 24.5781 11.4464 25 10.8571 25H7.28571C6.69643 25 6.21429 24.5781 6.21429 24.0625V20.9375ZM6.21429 30.9375C6.21429 30.4219 6.69643 30 7.28571 30H10.8571C11.4464 30 11.9286 30.4219 11.9286 30.9375V34.0625C11.9286 34.5781 11.4464 35 10.8571 35H7.28571C6.69643 35 6.21429 34.5781 6.21429 34.0625V30.9375ZM36.2143 5H31.9286V1.25C31.9286 0.5625 31.2857 0 30.5 0H27.6429C26.8571 0 26.2143 0.5625 26.2143 1.25V5H14.7857V1.25C14.7857 0.5625 14.1429 0 13.3571 0H10.5C9.71429 0 9.07143 0.5625 9.07143 1.25V5H4.78571C2.41964 5 0.5 6.67969 0.5 8.75V12.5H40.5V8.75C40.5 6.67969 38.5804 5 36.2143 5Z" fill="url(#paint0_linear_11_22)"/>
<defs>
<linearGradient id="paint0_linear_11_22" x1="6.68689" y1="6.00186" x2="29.6869" y2="40.0019" gradientUnits="userSpaceOnUse">
<stop stop-color="#4BACB3"/>
<stop offset="1" stop-color="#036F9D"/>
</linearGradient>
</defs>
</svg>
