<svg width="42" height="42" viewBox="0 0 42 42" fill="none" xmlns="http://www.w3.org/2000/svg">
<path d="M35 3.5H7C5.06975 3.5 3.5 5.0645 3.5 6.986V28.014C3.5 29.9355 5.06975 31.5 7 31.5H12.25V38.5L23.3642 31.5H35C36.9302 31.5 38.5 29.9355 38.5 28.014V6.986C38.4972 6.05988 38.1271 5.1727 37.471 4.51915C36.8148 3.8656 35.9261 3.49907 35 3.5ZM24.5 22.75H12.25V19.25H24.5V22.75ZM29.75 15.75H12.25V12.25H29.75V15.75Z" fill="url(#paint0_linear_25_2)"/>
<path d="M36.5 6H5.5V27.8772H14.0517V35L21.5345 27.8772H36.5V6Z" fill="white" fill-opacity="0.26"/>
<defs>
<linearGradient id="paint0_linear_25_2" x1="21" y1="3.5" x2="21" y2="38.5" gradientUnits="userSpaceOnUse">
<stop stop-color="#3CB5F2"/>
<stop offset="1" stop-color="#0085E0"/>
</linearGradient>
</defs>
</svg>
