<svg width="40" height="40" viewBox="0 0 40 40" fill="none" xmlns="http://www.w3.org/2000/svg">
<ellipse cx="21" cy="23.5" rx="15" ry="10.5" fill="white"/>
<path d="M35.6889 11.1111H4.31112C3.75711 11.1111 3.22579 11.3312 2.83405 11.7229C2.44231 12.1147 2.22223 12.646 2.22223 13.2V33.4667C2.22223 34.0207 2.44231 34.552 2.83405 34.9437C3.22579 35.3355 3.75711 35.5556 4.31112 35.5556H35.6889C36.2429 35.5556 36.7742 35.3355 37.166 34.9437C37.5577 34.552 37.7778 34.0207 37.7778 33.4667V13.2C37.7778 12.646 37.5577 12.1147 37.166 11.7229C36.7742 11.3312 36.2429 11.1111 35.6889 11.1111ZM26.8667 24.2556L16.0111 29.1C15.8421 29.176 15.6567 29.2085 15.4719 29.1945C15.2871 29.1806 15.1088 29.1206 14.953 29.0201C14.7973 28.9196 14.6692 28.7818 14.5804 28.6192C14.4916 28.4565 14.4448 28.2742 14.4445 28.0889V18.4C14.4448 18.2147 14.4916 18.0324 14.5804 17.8697C14.6692 17.7071 14.7973 17.5692 14.953 17.4688C15.1088 17.3683 15.2871 17.3083 15.4719 17.2944C15.6567 17.2804 15.8421 17.3129 16.0111 17.3889L26.8667 22.2222C27.0638 22.3092 27.2315 22.4516 27.3492 22.6321C27.4668 22.8126 27.5295 23.0234 27.5295 23.2389C27.5295 23.4544 27.4668 23.6652 27.3492 23.8457C27.2315 24.0262 27.0638 24.1686 26.8667 24.2556Z" fill="url(#paint0_linear_22_28)"/>
<path d="M33.4889 3.33334C33.4889 3.03866 33.3718 2.75604 33.1634 2.54767C32.9551 2.33929 32.6724 2.22223 32.3778 2.22223H7.93332C7.63863 2.22223 7.35602 2.33929 7.14764 2.54767C6.93927 2.75604 6.8222 3.03866 6.8222 3.33334V4.44445H33.4889V3.33334Z" fill="url(#paint1_linear_22_28)"/>
<path d="M35.6889 7.77778C35.6889 7.4831 35.5718 7.20048 35.3634 6.99211C35.1551 6.78374 34.8724 6.66667 34.5778 6.66667H5.68887C5.39418 6.66667 5.11157 6.78374 4.9032 6.99211C4.69482 7.20048 4.57776 7.4831 4.57776 7.77778V8.88889H35.6889V7.77778Z" fill="url(#paint2_linear_22_28)"/>
<defs>
<linearGradient id="paint0_linear_22_28" x1="20" y1="11.1111" x2="20" y2="35.5556" gradientUnits="userSpaceOnUse">
<stop stop-color="#F24056"/>
<stop offset="1" stop-color="#F27546"/>
</linearGradient>
<linearGradient id="paint1_linear_22_28" x1="20.1555" y1="2.22223" x2="20.1555" y2="4.44445" gradientUnits="userSpaceOnUse">
<stop stop-color="#F24056"/>
<stop offset="1" stop-color="#F27546"/>
</linearGradient>
<linearGradient id="paint2_linear_22_28" x1="20.1333" y1="6.66667" x2="20.1333" y2="8.88889" gradientUnits="userSpaceOnUse">
<stop stop-color="#F24056"/>
<stop offset="1" stop-color="#F27546"/>
</linearGradient>
</defs>
</svg>
