<svg width="40" height="40" viewBox="0 0 40 40" fill="none" xmlns="http://www.w3.org/2000/svg">
<path d="M5.04209 19.9617C2.28068 19.9546 -0.0242689 22.2214 0.655263 24.8982C0.887315 25.8123 1.18441 26.7108 1.54519 27.5868C2.54305 30.0097 4.0085 32.2126 5.85784 34.0698C7.70719 35.9269 9.90422 37.402 12.3235 38.4107C14.7428 39.4195 17.3369 39.9421 19.9578 39.9488C22.5788 39.9556 25.1751 39.4462 27.5986 38.4499C30.0221 37.4536 32.2254 35.9898 34.0825 34.1421C35.9397 32.2945 37.4144 30.0991 38.4225 27.6814C38.787 26.8072 39.0879 25.9102 39.3238 24.9974C40.0146 22.324 37.7193 20.0454 34.9579 20.0383L20 20L5.04209 19.9617Z" fill="#FE3C4C"/>
<ellipse cx="11.3591" cy="6.43275" rx="5.83873" ry="6.43275" fill="#FE3C4C"/>
<ellipse cx="28.1321" cy="6.43275" rx="5.83873" ry="6.43275" fill="#FE3C4C"/>
</svg>
